<?xml version="1.0" encoding="utf-8"?>
<!-- Generator: Adobe Illustrator 24.3.0, SVG Export Plug-In . SVG Version: 6.00 Build 0)  -->
<svg version="1.1" id="Layer_1" xmlns="http://www.w3.org/2000/svg" xmlns:xlink="http://www.w3.org/1999/xlink" x="0px" y="0px"
	 viewBox="0 0 1024 1024" style="enable-background:new 0 0 1024 1024;" xml:space="preserve">
<style type="text/css">
	.st0{fill:#F9BF2C;}
	.st1{fill:#008244;}
	.st2{fill:#6D4D42;}
</style>
<g>
	<path class="st0" d="M435.2,169.6l27.6,23.6c3.2,2.7,4.5,6.6,3.6,10.6l-8,34.9c-1,4.4,0.6,8.6,4.4,11.2c3.7,2.6,8.4,2.8,12.4,0.6
		l31.7-18.2c3.6-2.1,7.8-2.1,11.5,0l31.7,18.2c4,2.2,8.7,2,12.4-0.6c3.7-2.6,5.4-6.9,4.4-11.2l-8-34.9c-0.9-4,0.4-7.9,3.5-10.6
		l27.7-23.6c3.5-2.9,4.7-7.3,3.3-11.6c-1.4-4.2-5.1-7.1-9.7-7.5l-36.7-3.4c-4.2-0.4-7.6-2.8-9.3-6.5l-14.6-32.8
		c-1.8-4.1-5.7-6.6-10.4-6.6c-4.6,0-8.5,2.5-10.4,6.6l-14.6,32.8c-1.7,3.8-5.1,6.2-9.3,6.5l-36.7,3.4c-4.6,0.4-8.3,3.3-9.7,7.5
		C430.5,162.2,431.7,166.6,435.2,169.6z"/>
	<path class="st1" d="M799,809.8c10.8,0,15.9-13.3,7.9-20.6L676.6,613.9h51.9c10,0,15.5-11.8,9-19.4L596.1,427.3h39.4
		c10,0,15.4-11.6,9.1-19.3L521.1,256.8c-4.7-5.8-13.6-5.8-18.3,0L379.3,408c-6.3,7.7-0.8,19.3,9.1,19.3h39.4L286.5,594.5
		c-6.5,7.7-1,19.4,9,19.4h56.2L217.1,789.2c-8,7.2-2.9,20.6,7.9,20.6H799z M525.2,336.3c16.8,0,30.5,13.7,30.5,30.5
		s-13.7,30.5-30.5,30.5s-30.5-13.7-30.5-30.5S508.4,336.3,525.2,336.3z M509.8,445.7c13.2,0,23.9,10.7,23.9,23.9
		s-10.7,23.9-23.9,23.9s-23.9-10.7-23.9-23.9S496.6,445.7,509.8,445.7z M378.5,760.8c-19.8,0-35.8-16-35.8-35.8s16-35.8,35.8-35.8
		c19.8,0,35.8,16,35.8,35.8S398.3,760.8,378.5,760.8z M444.2,591.3c-18.4,0-33.3-14.9-33.3-33.3c0-18.4,14.9-33.3,33.3-33.3
		s33.3,14.9,33.3,33.3C477.5,576.4,462.6,591.3,444.2,591.3z M518.3,734.7c-23.4,0-42.3-19-42.3-42.3s19-42.3,42.3-42.3
		s42.3,19,42.3,42.3S541.7,734.7,518.3,734.7z M599.2,582c-19.8,0-35.8-16-35.8-35.8c0-19.8,16-35.8,35.8-35.8
		c19.8,0,35.8,16,35.8,35.8C635,566,618.9,582,599.2,582z M671.7,759c-13.2,0-23.9-10.7-23.9-23.9s10.7-23.9,23.9-23.9
		s23.9,10.7,23.9,23.9S684.9,759,671.7,759z"/>
</g>
<polygon class="st2" points="478.6,823 473.4,936.1 550.6,936.1 545.4,823 "/>
</svg>
